<?xml version="1.0" encoding="UTF-8" standalone="no"?><!-- Created with Inkscape (http://www.inkscape.org/) -->
<svg xmlns:cc="http://creativecommons.org/ns#" xmlns:dc="http://purl.org/dc/elements/1.1/"
    xmlns:inkscape="http://www.inkscape.org/namespaces/inkscape" xmlns:rdf="http://www.w3.org/1999/02/22-rdf-syntax-ns#"
    xmlns:sodipodi="http://sodipodi.sourceforge.net/DTD/sodipodi-0.dtd"
    xmlns:xlink="http://www.w3.org/1999/xlink"
    height="250" id="svg2" version="1.0" width="350"
    xmlns="http://www.w3.org/2000/svg" inkscape:export-filename="/home/hansenm/Projects/boost-trunk/libs/graph/doc/figs/grid_graph_unwrapped.png" inkscape:export-xdpi="90"
    inkscape:export-ydpi="90"
    inkscape:output_extension="org.inkscape.output.svg.inkscape"
    inkscape:version="0.46"
    sodipodi:docname="grid_graph_indexed.svg" sodipodi:version="0.32">
    <defs id="defs4">
        <marker style="overflow:visible" id="Arrow2Sstart" orient="auto" refX="0.0"
            refY="0.0" inkscape:stockid="Arrow2Sstart">
            <path style="font-size:12.0;fill-rule:evenodd;stroke-width:0.62500000;stroke-linejoin:round"
                d="M 8.7185878,4.0337352 L -2.2072895,0.016013256 L 8.7185884,-4.0017078 C 6.9730900,-1.6296469 6.9831476,1.6157441 8.7185878,4.0337352 z "
                id="path3938"
                transform="scale(0.3) translate(-2.3,0)" />
        </marker>
        <marker style="overflow:visible" id="Arrow2Send" orient="auto" refX="0" refY="0"
            inkscape:stockid="Arrow2Send">
            <path style="font-size:12px;fill-rule:evenodd;stroke-width:0.625;stroke-linejoin:round"
                d="M 8.7185878,4.0337352 L -2.2072895,0.016013256 L 8.7185884,-4.0017078 C 6.97309,-1.6296469 6.9831476,1.6157441 8.7185878,4.0337352 z"
                id="path3324"
                transform="matrix(-0.3,0,0,-0.3,0.69,0)" />
        </marker>
        <marker style="overflow:visible" id="Arrow2Mend" orient="auto" refX="0" refY="0"
            inkscape:stockid="Arrow2Mend">
            <path style="font-size:12px;fill-rule:evenodd;stroke-width:0.625;stroke-linejoin:round"
                d="M 8.7185878,4.0337352 L -2.2072895,0.016013256 L 8.7185884,-4.0017078 C 6.97309,-1.6296469 6.9831476,1.6157441 8.7185878,4.0337352 z"
                id="path3318"
                transform="scale(-0.6,-0.6)" />
        </marker>
        <marker style="overflow:visible" id="Arrow2Lend" orient="auto" refX="0" refY="0"
            inkscape:stockid="Arrow2Lend">
            <path style="font-size:12px;fill-rule:evenodd;stroke-width:0.625;stroke-linejoin:round"
                d="M 8.7185878,4.0337352 L -2.2072895,0.016013256 L 8.7185884,-4.0017078 C 6.97309,-1.6296469 6.9831476,1.6157441 8.7185878,4.0337352 z"
                id="path3312"
                transform="matrix(-1.1,0,0,-1.1,-1.1,0)" />
        </marker>
        <marker style="overflow:visible" id="Arrow1Send" orient="auto" refX="0" refY="0"
            inkscape:stockid="Arrow1Send">
            <path style="fill-rule:evenodd;stroke:#000000;stroke-width:1pt;marker-start:none" d="M 0,0 L 5,-5 L -12.5,0 L 5,5 L 0,0 z"
                id="path3306"
                transform="matrix(-0.2,0,0,-0.2,-1.2,0)" />
        </marker>
        <marker style="overflow:visible" id="Arrow1Mend" orient="auto" refX="0" refY="0"
            inkscape:stockid="Arrow1Mend">
            <path style="fill-rule:evenodd;stroke:#000000;stroke-width:1pt;marker-start:none" d="M 0,0 L 5,-5 L -12.5,0 L 5,5 L 0,0 z"
                id="path3300"
                transform="matrix(-0.4,0,0,-0.4,-4,0)" />
        </marker>
        <marker style="overflow:visible" id="Arrow1Lend" orient="auto" refX="0" refY="0"
            inkscape:stockid="Arrow1Lend">
            <path style="fill-rule:evenodd;stroke:#000000;stroke-width:1pt;marker-start:none" d="M 0,0 L 5,-5 L -12.5,0 L 5,5 L 0,0 z"
                id="path3294"
                transform="matrix(-0.8,0,0,-0.8,-10,0)" />
        </marker>
        <inkscape:perspective id="perspective10" inkscape:persp3d-origin="372.04724 : 350.78739 : 1"
            inkscape:vp_x="0 : 526.18109 : 1" inkscape:vp_y="0 : 1000 : 0"
            inkscape:vp_z="744.09448 : 526.18109 : 1" sodipodi:type="inkscape:persp3d" />
    </defs>
    <sodipodi:namedview bordercolor="#666666" borderopacity="1.0" gridtolerance="10000" guidetolerance="10"
        id="base" objecttolerance="10" pagecolor="#ffffff" showgrid="false"
        inkscape:current-layer="layer1" inkscape:cx="79.05402" inkscape:cy="102.2962" inkscape:document-units="px"
        inkscape:pageopacity="1" inkscape:pageshadow="2" inkscape:window-height="1150"
        inkscape:window-width="1600" inkscape:window-x="0" inkscape:window-y="25"
        inkscape:zoom="2" />
    <metadata id="metadata7">
        <rdf:RDF>
            <cc:Work rdf:about="">
                <dc:format>image/svg+xml</dc:format>
                <dc:type rdf:resource="http://purl.org/dc/dcmitype/StillImage" />
            </cc:Work>
        </rdf:RDF>
    </metadata>
    <g id="layer1" inkscape:groupmode="layer" inkscape:label="Vertices" sodipodi:insensitive="true">
        <g id="g3150">
            <g id="g3204" transform="translate(7.353668,21.661333)">
                <path
                    style="opacity:0.5;fill:#808080;fill-opacity:1;stroke:none;stroke-width:2;stroke-linecap:round;stroke-linejoin:round;stroke-miterlimit:4;stroke-dasharray:none;stroke-opacity:1"
                    d="M 63.63961,32.567215 A 16.920055,14.89975 0 1 1 29.7995,32.567215 A 16.920055,14.89975 0 1 1 63.63961,32.567215 z" id="path3199" transform="translate(2.8535534,2.5428932)"
                    sodipodi:cx="46.719555" sodipodi:cy="32.567215"
                    sodipodi:rx="16.920055"
                    sodipodi:ry="14.89975" sodipodi:type="arc" />
                <g id="g3168">
                    <path
                        style="fill:#00ccff;fill-opacity:1;stroke:none;stroke-width:2;stroke-linecap:round;stroke-linejoin:round;stroke-miterlimit:4;stroke-opacity:1"
                        d="M 63.63961,33.466965 C 63.63961,25.242303 56.059425,18.567215 46.719555,18.567215 C 37.379684,18.567215 29.7995,25.242303 29.7995,33.466965 L 63.63961,33.466965 z"
                        id="path3158" sodipodi:nodetypes="cscc" />
                    <path style="fill:#00aad4;fill-opacity:1;stroke:none;stroke-width:2;stroke-linecap:round;stroke-linejoin:round;stroke-miterlimit:4;stroke-opacity:1" d="M 63.63961,32.567215 C 63.63961,40.791877 56.059425,47.466965 46.719555,47.466965 C 37.379684,47.466965 29.7995,40.791877 29.7995,32.567215 L 63.63961,32.567215 z"
                        id="path2385"
                        sodipodi:nodetypes="cscc" />
                    <path
                        style="opacity:1;fill:none;fill-opacity:1;stroke:#004455;stroke-width:2;stroke-linecap:round;stroke-linejoin:round;stroke-miterlimit:4;stroke-dasharray:none;stroke-opacity:1"
                        d="M 63.63961,32.567215 A 16.920055,14.89975 0 1 1 29.7995,32.567215 A 16.920055,14.89975 0 1 1 63.63961,32.567215 z" id="path2383" sodipodi:cx="46.719555"
                        sodipodi:cy="32.567215" sodipodi:rx="16.920055"
                        sodipodi:ry="14.89975"
                        sodipodi:type="arc" />
                </g>
            </g>
            <text
         style="font-size:14px;font-style:normal;font-weight:normal;fill:#000000;fill-opacity:1;stroke:none;stroke-width:1px;stroke-linecap:butt;stroke-linejoin:miter;stroke-opacity:1;font-family:Bitstream Vera Sans"
         id="text3160"
         x="70.285149"
         y="57.511555"
         xml:space="preserve"><tspan
           id="tspan3162"
           x="70.285149"
           y="57.511555"
           sodipodi:role="line" /></text>
            <use height="200" id="use3211" transform="translate(120,7.6293945e-6)" width="300"
                x="0" y="0" xlink:href="#g3204" />
            <use height="200" id="use3213" transform="translate(240,7.6293945e-6)" width="300"
                x="0" y="0" xlink:href="#g3204" />
            <use height="200" id="use3217" transform="translate(120,70.000008)" width="300" x="0"
                y="0" xlink:href="#g3204" />
            <use height="200" id="use3219" transform="translate(240,70.000008)" width="300"
                x="0" y="0" xlink:href="#g3204" />
            <use height="200" id="use3281" transform="translate(0,70.000008)" width="300"
                x="0" y="0" xlink:href="#g3204" />
            <use height="200" id="use3253" transform="translate(120,140.00001)" width="300"
                x="0" y="0" xlink:href="#g3204" />
            <use height="200" id="use3255" transform="translate(240,140.00001)" width="300" x="0"
                y="0" xlink:href="#g3204" />
            <use height="200" id="use3283" transform="translate(0,140.00001)" width="300"
                x="0" y="0" xlink:href="#g3204" />
            <path style="fill:none;fill-opacity:1;fill-rule:evenodd;stroke:#000000;stroke-width:4;stroke-linecap:butt;stroke-linejoin:miter;marker-start:url(#Arrow2Sstart);marker-end:url(#Arrow2Send);stroke-opacity:1" d="M 80.745313,54.999995 L 145.43911,54.999995"
                id="path3286" />
            <use style="fill:none" height="200" id="use7505"
                transform="matrix(0,-0.4518081,1,0,4.601123e-6,141.28126)" width="300"
                x="0" y="0" xlink:href="#path3286" />
            <use style="fill:none" height="200" id="use7582" transform="translate(118,0)"
                width="300" x="0" y="0" xlink:href="#path3286" />
            <use style="fill:none" height="200" id="use7594" transform="translate(118,70.000008)" width="300"
                x="0" y="0" xlink:href="#path3286" />
            <use style="fill:none" height="200" id="use7606" transform="translate(118,140.00001)"
                width="300" x="0" y="0" xlink:href="#path3286" />
            <use style="fill:none" height="200" id="use7618" transform="translate(-2,140.00001)" width="300"
                x="0" y="0" xlink:href="#path3286" />
            <use style="fill:none" height="200" id="use7630" transform="translate(-2,70.000008)"
                width="300" x="0" y="0" xlink:href="#path3286" />
            <use style="fill:none" height="250" id="use4719" transform="translate(120,0)"
                width="350" x="0" y="0" xlink:href="#use7505" />
            <use style="fill:none" height="250" id="use4721" transform="translate(240,0)" width="350"
                x="0" y="0" xlink:href="#use7505" />
            <use style="fill:none" height="250" id="use4723" transform="translate(240,70)"
                width="350" x="0" y="0" xlink:href="#use7505" />
            <use style="fill:none" height="250" id="use4725" transform="translate(120,70)" width="350"
                x="0" y="0" xlink:href="#use7505" />
            <use style="fill:none" height="250" id="use4727" transform="translate(0,70)" width="350"
                x="0" y="0" xlink:href="#use7505" />
        </g>
    </g>
    <g id="layer3" inkscape:groupmode="layer" inkscape:label="Wrapped Edges"
        sodipodi:insensitive="true">
        <g id="g3180">
            <path style="fill:none;fill-opacity:1;fill-rule:evenodd;stroke:#000000;stroke-width:3;stroke-linecap:butt;stroke-linejoin:miter;marker-start:url(#Arrow2Sstart);marker-end:url(#Arrow2Send);stroke-opacity:1"
                d="M 62.24531,29.999995 C 65.123489,26.146153 67.230816,19.819975 75.68005,17.029619 C 121.30433,1.9622158 235.21392,2.5182714 277.71508,19.982113 C 284.41084,22.733419 285.33426,25.904372 287.93911,29.499995"
                id="path4730"
                sodipodi:nodetypes="cssc" />
            <use height="250" id="use4733" transform="matrix(1,0,0,-1,0,252.61622)" width="350"
                x="0" y="0" xlink:href="#path4730" />
            <path style="fill:none;fill-opacity:1;fill-rule:evenodd;stroke:#000000;stroke-width:3;stroke-linecap:butt;stroke-linejoin:miter;marker-start:url(#Arrow2Sstart);marker-end:url(#Arrow2Send);stroke-opacity:1"
                d="M 27.76794,196.41186 C 23.91409,194.17719 17.58792,192.54103 14.79756,185.9809 C -0.26984,150.55741 0.28621,94.11602 17.75005,61.117382 C 20.50136,55.918677 23.67231,55.201718 27.26794,53.179267"
                id="path4735"
                sodipodi:nodetypes="cssc" />
            <use height="250" id="use4737" transform="matrix(-1,0,0,1,348.4957,0)" width="350"
                x="0" y="0" xlink:href="#path4735" />
        </g>
    </g>
</svg>
