<?xml version="1.0" encoding="UTF-8" standalone="no"?>
<svg height="400.45422" id="svg2" version="1.0" viewBox="1.33 0.95 6.01 4.09"
    width="507.85925" xmlns="http://www.w3.org/2000/svg">
    <defs id="defs95" />
    <rect style="fill:#e5e5e5;stroke:none;stroke-width:0" height="4.0815721" id="rect4" width="6.0023117" x="1.3310578"
        y="0.95080346" />
    <rect style="opacity:1;fill:none;stroke:#000000;stroke-width:0.02400924" height="4.0815721" id="rect6" width="6.0023117" x="1.3310578"
        y="0.95080346" />
    <rect style="fill:#ffffff;stroke:none;stroke-width:0" height="1.6806473" id="rect8" width="1.2004625" x="1.5711501"
        y="1.1908962" />
    <rect style="fill:none;stroke:#000000;stroke-width:0.02400924" height="1.6806473" id="rect10" width="1.2004625" x="1.5711501"
        y="1.1908962" />
    <text style="font-size:0.19207397px;font-style:normal;font-weight:400;text-anchor:start;fill:#000000;font-family:sans" id="text12" x="1.7289008"
        y="1.4950322">
        Bucket 1
    </text>
    <line style="stroke:#000000;stroke-width:0.02400924" id="line14" x1="1.5711501" x2="2.7716124" y1="1.6710808"
        y2="1.6710808" />
    <rect style="fill:#ffffff;stroke:none;stroke-width:0" height="1.6806473" id="rect16" width="1.2004625" x="3.0117054"
        y="1.1908962" />
    <rect style="fill:none;stroke:#000000;stroke-width:0.02400924" height="1.6806473" id="rect18" width="1.2004625" x="3.0117054"
        y="1.1908962" />
    <text style="font-size:0.19207397px;font-style:normal;font-weight:400;text-anchor:start;fill:#000000;font-family:sans" id="text20" x="3.1603069"
        y="1.4950322">
        Bucket 2
    </text>
    <line style="stroke:#000000;stroke-width:0.02400924" id="line22" x1="3.0117054" x2="4.2121677" y1="1.6710808"
        y2="1.6710808" />
    <rect style="fill:#ffffff;stroke:none;stroke-width:0" height="1.6806473" id="rect24" width="1.2004625" x="4.4522605"
        y="1.1908962" />
    <rect style="fill:none;stroke:#000000;stroke-width:0.02400924" height="1.6806473" id="rect26" width="1.2004625" x="4.4522605"
        y="1.1908962" />
    <text style="font-size:0.19207397px;font-style:normal;font-weight:400;text-anchor:start;fill:#000000;font-family:sans" id="text28" x="4.5917125"
        y="1.4950322">
        Bucket 3
    </text>
    <line style="stroke:#000000;stroke-width:0.02400924" id="line30" x1="4.4522605" x2="5.6527228" y1="1.6710808"
        y2="1.6710808" />
    <rect style="fill:#ffffff;stroke:none;stroke-width:0" height="1.6806473" id="rect32" width="1.2004625" x="5.8928151"
        y="1.1908962" />
    <rect style="fill:none;stroke:#000000;stroke-width:0.02400924" height="1.6806473" id="rect34" width="1.2004625" x="5.8928151"
        y="1.1908962" />
    <text style="font-size:0.19207397px;font-style:normal;font-weight:400;text-anchor:start;fill:#000000;font-family:sans" id="text36" x="6.0688629"
        y="1.4858831">
        Bucket 4
    </text>
    <line style="stroke:#000000;stroke-width:0.02400924" id="line38" x1="5.8928151" x2="7.093277" y1="1.6710808"
        y2="1.6710808" />
    <rect style="fill:#ffffff;stroke:none;stroke-width:0" height="1.6806473" id="rect40" width="1.2004625" x="2.2941716"
        y="3.1054616" />
    <rect style="fill:none;stroke:#000000;stroke-width:0.02400924" height="1.6806473" id="rect42" width="1.2004625" x="2.2941716"
        y="3.1054616" />
    <text style="font-size:0.19207397px;font-style:normal;font-weight:400;text-anchor:start;fill:#000000;font-family:sans" id="text44" x="2.4427731"
        y="3.4187472">
        Bucket 5
    </text>
    <line style="stroke:#000000;stroke-width:0.02400924" id="line46" x1="2.2941716" x2="3.4946339" y1="3.5856469"
        y2="3.5856469" />
    <rect style="fill:#ffffff;stroke:none;stroke-width:0" height="1.6806473" id="rect48" width="1.2004625" x="3.7347264"
        y="3.1054616" />
    <rect style="fill:none;stroke:#000000;stroke-width:0.02400924" height="1.6806473" id="rect50" width="1.2004625" x="3.7347264"
        y="3.1054616" />
    <text style="font-size:0.19207397px;font-style:normal;font-weight:400;text-anchor:start;fill:#000000;font-family:sans" id="text52" x="3.8833277"
        y="3.4187472">
        Bucket 6
    </text>
    <line style="stroke:#000000;stroke-width:0.02400924" id="line54" x1="3.7347264" x2="4.9351892" y1="3.5856469"
        y2="3.5856469" />
    <rect style="fill:#ffffff;stroke:none;stroke-width:0" height="1.6806473" id="rect56" width="1.2004625" x="5.175281"
        y="3.1054616" />
    <rect style="fill:none;stroke:#000000;stroke-width:0.02400924" height="1.6806473" id="rect58" width="1.2004625" x="5.175281"
        y="3.1054616" />
    <text style="font-size:0.19207397px;font-style:normal;font-weight:400;text-anchor:start;fill:#000000;font-family:sans" id="text60" x="5.3330317"
        y="3.4187472">
        Bucket 7
    </text>
    <line style="stroke:#000000;stroke-width:0.02400924" id="line62" x1="5.175281" x2="6.3757439" y1="3.5856469"
        y2="3.5856469" />
    <ellipse style="fill:#ffffff;stroke:none" cx="7.1999998" cy="4.0110002" id="ellipse64"
        rx="0.308" ry="0.308"
        transform="matrix(0.6859785,0,0,0.6859785,1.3310577,-0.7298436)" />
    <ellipse style="fill:none;stroke:#000000;stroke-width:0.035" cx="7.1999998" cy="4.0110002" id="ellipse66"
        rx="0.308" ry="0.308"
        transform="matrix(0.6859785,0,0,0.6859785,1.3310577,-0.7298436)" />
    <text style="font-size:0.34038281px;font-style:normal;font-variant:normal;font-weight:normal;font-stretch:normal;text-align:start;line-height:125%;writing-mode:lr-tb;text-anchor:start;fill:#000000;font-family:Sans;-inkscape-font-specification:Sans" id="text68" x="6.1443377"
        y="2.1364057">
        A
    </text>
    <ellipse style="fill:#ffffff;stroke:none" cx="3.007" cy="4.0300002" id="ellipse70"
        rx="0.308" ry="0.308"
        transform="matrix(0.6859785,0,0,0.6859785,1.3310577,-0.7298436)" />
    <ellipse style="fill:none;stroke:#000000;stroke-width:0.035" cx="3.007" cy="4.0300002" id="ellipse72"
        rx="0.308" ry="0.308"
        transform="matrix(0.6859785,0,0,0.6859785,1.3310577,-0.7298436)" />
    <text style="font-size:0.34038281px;font-style:normal;font-variant:normal;font-weight:normal;font-stretch:normal;text-align:start;line-height:125%;writing-mode:lr-tb;text-anchor:start;fill:#000000;font-family:Sans;-inkscape-font-specification:Sans" id="text74" x="3.2742035"
        y="2.1540098">
        B
    </text>
    <ellipse style="fill:#ffffff;stroke:none" cx="4.0599999" cy="6.7820001" id="ellipse76"
        rx="0.308" ry="0.308"
        transform="matrix(0.6859785,0,0,0.6859785,1.3310577,-0.7298436)" />
    <ellipse style="fill:none;stroke:#000000;stroke-width:0.035" cx="4.0599999" cy="6.7820001" id="ellipse78"
        rx="0.308" ry="0.308"
        transform="matrix(0.6859785,0,0,0.6859785,1.3310577,-0.7298436)" />
    <text style="font-size:0.34038281px;font-style:normal;font-variant:normal;font-weight:normal;font-stretch:normal;text-align:start;line-height:125%;writing-mode:lr-tb;text-anchor:start;fill:#000000;font-family:Sans;-inkscape-font-specification:Sans" id="text80" x="3.976877"
        y="4.0473108">
        C
    </text>
    <ellipse style="fill:#ffffff;stroke:none" cx="7.8449998" cy="4.6550002" id="ellipse82"
        rx="0.308" ry="0.308"
        transform="matrix(0.6859785,0,0,0.6859785,1.3310577,-0.7298436)" />
    <ellipse style="fill:none;stroke:#000000;stroke-width:0.035" cx="7.8449998" cy="4.6550002" id="ellipse84"
        rx="0.308" ry="0.308"
        transform="matrix(0.6859785,0,0,0.6859785,1.3310577,-0.7298436)" />
    <text style="font-size:0.34038281px;font-style:normal;font-variant:normal;font-weight:normal;font-stretch:normal;text-align:start;line-height:125%;writing-mode:lr-tb;text-anchor:start;fill:#000000;font-family:Sans;-inkscape-font-specification:Sans" id="text86" x="6.5808516"
        y="2.5937216">
        D
    </text>
    <ellipse style="fill:#ffffff;stroke:none" cx="0.87" cy="4.0079999" id="ellipse88"
        rx="0.308" ry="0.308"
        transform="matrix(0.6859785,0,0,0.6859785,1.3310577,-0.7298436)" />
    <ellipse style="fill:none;stroke:#000000;stroke-width:0.035" cx="0.87" cy="4.0079999" id="ellipse90"
        rx="0.308" ry="0.308"
        transform="matrix(0.6859785,0,0,0.6859785,1.3310577,-0.7298436)" />
    <text style="font-size:0.34038281px;font-style:normal;font-variant:normal;font-weight:normal;font-stretch:normal;text-align:start;line-height:125%;writing-mode:lr-tb;text-anchor:start;fill:#000000;font-family:Sans;-inkscape-font-specification:Sans" id="text92" x="1.7991183"
        y="2.1403852">
        E
    </text>
</svg>
