<?xml version="1.0" encoding="UTF-8" standalone="no"?>
<svg height="400" version="1.1" width="750" xmlns="http://www.w3.org/2000/svg">
    <!-- SVG plot written using Boost.Plot program (Creator Jacob Voytko) -->
    <!-- Use, modification and distribution of Boost.Plot subject to the -->
    <!-- Boost Software License, Version 1.0.-->
    <!-- (See accompanying file LICENSE_1_0.txt -->
    <!-- or copy at http://www.boost.org/LICENSE_1_0.txt) -->

    <clipPath id="plot_window">
        <rect height="281" width="512.8" x="85.2" y="59" />
    </clipPath>
    <g fill="rgb(255,255,255)" id="imageBackground" stroke="rgb(119,136,153)" stroke-width="2">
        <rect height="400" width="750" x="0" y="0" />
    </g>
    <g fill="rgb(255,255,255)" id="plotBackground" stroke="rgb(119,136,153)" stroke-width="2">
        <rect height="283" width="514.8" x="84.2" y="58" />
    </g>
    <g id="yMinorGrid" stroke="rgb(200,220,255)" stroke-width="0.5"></g>
    <g id="yMajorGrid" stroke="rgb(200,220,255)" stroke-width="1"></g>
    <g id="xMinorGrid" stroke="rgb(200,220,255)" stroke-width="0.5"></g>
    <g id="xMajorGrid" stroke="rgb(200,220,255)" stroke-width="1"></g>
    <g id="yAxis" stroke="rgb(0,0,0)" stroke-width="1">
        <line x1="212.9" x2="212.9" y1="58" y2="346" />
        <line x1="84.2" x2="84.2" y1="58" y2="341" />
    </g>
    <g id="xAxis" stroke="rgb(0,0,0)" stroke-width="1">
        <line x1="79.2" x2="599" y1="341" y2="341" />
        <line x1="79.2" x2="599" y1="341" y2="341" />
    </g>
    <g id="yMinorTicks" stroke="rgb(0,0,0)" stroke-width="1">
        <path
            d="M82.2,334.1 L84.2,334.1 M82.2,327.3 L84.2,327.3 M82.2,320.4 L84.2,320.4 M82.2,313.6 L84.2,313.6 M82.2,299.8 L84.2,299.8 M82.2,293 L84.2,293 M82.2,286.1 L84.2,286.1 M82.2,279.3 L84.2,279.3 M82.2,265.5 L84.2,265.5 M82.2,258.7 L84.2,258.7 M82.2,251.8 L84.2,251.8 M82.2,245 L84.2,245 M82.2,231.2 L84.2,231.2 M82.2,224.4 L84.2,224.4 M82.2,217.5 L84.2,217.5 M82.2,210.6 L84.2,210.6 M82.2,196.9 L84.2,196.9 M82.2,190.1 L84.2,190.1 M82.2,183.2 L84.2,183.2 M82.2,176.3 L84.2,176.3 M82.2,162.6 L84.2,162.6 M82.2,155.8 L84.2,155.8 M82.2,148.9 L84.2,148.9 M82.2,142 L84.2,142 M82.2,128.3 L84.2,128.3 M82.2,121.5 L84.2,121.5 M82.2,114.6 L84.2,114.6 M82.2,107.7 L84.2,107.7 M82.2,94.02 L84.2,94.02 M82.2,87.16 L84.2,87.16 M82.2,80.3 L84.2,80.3 M82.2,73.44 L84.2,73.44 M82.2,59.72 L84.2,59.72 M82.2,341 L84.2,341 "
            fill="none" />
    </g>
    <g id="xMinorTicks" stroke="rgb(0,0,0)" stroke-width="1"></g>
    <g id="yMajorTicks" stroke="rgb(0,0,0)" stroke-width="2">
        <path
            d="M79.2,341 L84.2,341 M79.2,306.7 L84.2,306.7 M79.2,272.4 L84.2,272.4 M79.2,238.1 L84.2,238.1 M79.2,203.8 L84.2,203.8 M79.2,169.5 L84.2,169.5 M79.2,135.2 L84.2,135.2 M79.2,100.9 L84.2,100.9 M79.2,66.58 L84.2,66.58 M79.2,341 L84.2,341 "
            fill="none" />
    </g>
    <g id="xMajorTicks" stroke="rgb(0,0,0)" stroke-width="2">
        <path d="M212.9,341 L212.9,346 M470.3,341 L470.3,346 M212.9,341 L212.9,346 " fill="none" />
    </g>
    <g id="xTicksValues">
        <text font-family="Verdana" font-size="12" text-anchor="middle" x="212.9" y="361.6">0</text>
        <text font-family="Verdana" font-size="12" text-anchor="middle" x="470.3" y="361.6">1</text>
        <text font-family="Verdana" font-size="12" text-anchor="middle" x="212.9" y="361.6">0</text>
    </g>
    <g id="yTicksValues">
        <text font-family="Verdana" font-size="12" text-anchor="end" x="73.2" y="343.4">0</text>
        <text font-family="Verdana" font-size="12" text-anchor="end" x="73.2" y="309.1">0.1</text>
        <text font-family="Verdana" font-size="12" text-anchor="end" x="73.2" y="274.8">0.2</text>
        <text font-family="Verdana" font-size="12" text-anchor="end" x="73.2" y="240.5">0.3</text>
        <text font-family="Verdana" font-size="12" text-anchor="end" x="73.2" y="206.2">0.4</text>
        <text font-family="Verdana" font-size="12" text-anchor="end" x="73.2" y="171.9">0.5</text>
        <text font-family="Verdana" font-size="12" text-anchor="end" x="73.2" y="137.6">0.6</text>
        <text font-family="Verdana" font-size="12" text-anchor="end" x="73.2" y="103.3">0.7</text>
        <text font-family="Verdana" font-size="12" text-anchor="end" x="73.2" y="68.98">0.8</text>
        <text font-family="Verdana" font-size="12" text-anchor="end" x="73.2" y="343.4">0</text>
    </g>
    <g id="yLabel">
        <text font-family="Verdana" font-size="14" text-anchor="middle" transform="rotate(-90 42.9 199.5 )"
            x="42.9" y="199.5">Probability
        </text>
    </g>
    <g id="xLabel">
        <text font-family="Verdana" font-size="14" text-anchor="middle" x="341.6" y="376.7">Random
            Variable
        </text>
    </g>
    <g id="plotLines" stroke-width="2">
        <g clip-path="url(#plot_window)" fill="rgb(0,0,139)" stroke="rgb(0,0,139)" stroke-width="1">
            <path
                d="M116.4,341 L116.4,341 L116.4,83.73 L180.7,83.73 L180.7,341 L373.8,341 L373.8,255.2 L438.1,255.2 L438.1,341 L438.1,341 Z"
                fill="rgb(0,0,139)" />
        </g>
        <g clip-path="url(#plot_window)" fill="rgb(139,0,0)" stroke="rgb(139,0,0)" stroke-width="1">
            <path
                d="M180.7,341 L180.7,341 L180.7,169.5 L245.1,169.5 L245.1,341 L438.1,341 L438.1,169.5 L502.4,169.5 L502.4,341 L502.4,341 Z"
                fill="rgb(139,0,0)" />
        </g>
        <g clip-path="url(#plot_window)" fill="rgb(0,100,0)" stroke="rgb(0,100,0)" stroke-width="1">
            <path
                d="M245.1,341 L245.1,341 L245.1,255.2 L309.4,255.2 L309.4,341 L502.4,341 L502.4,83.73 L566.8,83.73 L566.8,341 L566.8,341 Z"
                fill="rgb(0,100,0)" />
        </g>
    </g>
    <g clip-path="url(#plot_window)" id="plotPoints"></g>
    <g fill="rgb(255,255,255)" id="legendBackground" stroke="rgb(119,136,153)" stroke-width="1">
        <rect height="105" width="111" x="613" y="58" />
        <rect height="105" width="111" x="613" y="58" />
    </g>
    <g id="legendPoints">
        <g fill="rgb(255,255,255)" stroke="rgb(0,0,139)" stroke-width="1">
            <line x1="628" x2="643" y1="88" y2="88" />
        </g>
        <g fill="rgb(255,255,255)" stroke="rgb(139,0,0)" stroke-width="1">
            <line x1="628" x2="643" y1="118" y2="118" />
        </g>
        <g fill="rgb(255,255,255)" stroke="rgb(0,100,0)" stroke-width="1">
            <line x1="628" x2="643" y1="148" y2="148" />
        </g>
    </g>
    <g id="legendText">
        <text font-family="Verdana" font-size="15" x="650.5" y="88">p=0.25</text>
        <text font-family="Verdana" font-size="15" x="650.5" y="118">p=0.5</text>
        <text font-family="Verdana" font-size="15" x="650.5" y="148">p=0.75</text>
    </g>
    <g id="title">
        <text font-family="Verdana" font-size="20" text-anchor="middle" x="375" y="40">Bernoulli
            Distribution PDF
        </text>
    </g>
    <g id="plotXValues"></g>
    <g id="plotYValues"></g>
</svg>
